<svg width="177" height="40" viewBox="0 0 177 40" fill="none" xmlns="http://www.w3.org/2000/svg">
<path d="M9.33884 14.7237L4.07227 19.9902L9.33884 25.2568L14.6054 19.9902L9.33884 14.7237Z" fill="#9D7247"/>
<path d="M19.9951 4.08548L14.7285 9.35205L19.9951 14.6186L25.2617 9.35205L19.9951 4.08548Z" fill="#9D7247"/>
<path d="M19.9912 25.3936L14.7246 30.6602L19.9912 35.9267L25.2578 30.6602L19.9912 25.3936Z" fill="#9D7247"/>
<path d="M30.6474 14.7266L25.3809 19.9932L30.6474 25.2597L35.914 19.9932L30.6474 14.7266Z" fill="#9D7247"/>
<path d="M28.6103 12.6866L23.3438 17.9531L25.3829 19.9923L30.6495 14.7257L28.6103 12.6866Z" fill="#9D7247"/>
<path d="M17.9541 23.3535L12.6875 28.6201L14.7266 30.6593L19.9932 25.3927L17.9541 23.3535Z" fill="#9D7247"/>
<path d="M25.2588 9.35305L19.9922 14.6196L22.0313 16.6588L27.2979 11.3922L25.2588 9.35305Z" fill="#9D7247"/>
<path d="M14.6181 20.0054L9.35156 25.272L11.3907 27.3111L16.6573 22.0445L14.6181 20.0054Z" fill="#9D7247"/>
<path d="M11.379 12.6864L9.33984 14.7256L14.6064 19.9922L16.6456 17.953L11.379 12.6864Z" fill="#9D7247"/>
<path d="M14.7266 9.34953L12.6875 11.3887L17.9541 16.6552L19.9932 14.6161L14.7266 9.34953Z" fill="#9D7247"/>
<path d="M25.379 19.9901L23.3398 22.0293L28.6064 27.2959L30.6456 25.2567L25.379 19.9901Z" fill="#9D7247"/>
<path d="M22.047 23.3417L20.0078 25.3809L25.2744 30.6474L27.3135 28.6083L22.047 23.3417Z" fill="#9D7247"/>
<path d="M27.3031 32.6973L25.2699 30.6641L20.0002 35.9338L14.7305 30.6641L12.6973 32.6973L20.0002 40.0002L27.3031 32.6973Z" fill="#9D7247"/>
<path d="M9.3361 14.7305L7.3029 12.6973L0 20.0002L7.3029 27.3031L9.3361 25.2699L4.06639 20.0002L9.3361 14.7305Z" fill="#9D7247"/>
<path d="M32.6973 12.6973L30.6641 14.7305L35.9338 20.0002L30.6641 25.2699L32.6973 27.3031L40.0002 20.0002L32.6973 12.6973Z" fill="#9D7247"/>
<path d="M25.2699 9.3361L27.3031 7.3029L20.0002 0L12.6973 7.3029L14.7305 9.3361L20.0002 4.06639L25.2699 9.3361Z" fill="#9D7247"/>
<path d="M45.3281 38.6802V36.8242H45.9041C46.5868 36.8242 47.2375 36.6428 47.8561 36.2802C48.4748 35.9175 48.9761 35.3202 49.3601 34.4882C49.7441 33.6562 49.9361 32.5255 49.9361 31.0962V11.8002C49.9361 10.9468 49.7761 10.4135 49.4561 10.2002C49.1361 9.96551 48.7521 9.84818 48.3041 9.84818H46.9601V8.15218H58.0001V9.84818H56.6561C56.1868 9.84818 55.7921 9.96551 55.4721 10.2002C55.1521 10.4348 54.9921 11.0108 54.9921 11.9282V31.0642C54.9921 32.5148 54.7575 33.7308 54.2881 34.7122C53.8188 35.6935 53.1788 36.4722 52.3681 37.0482C51.5788 37.6242 50.6721 38.0402 49.6481 38.2962C48.6241 38.5522 47.5681 38.6802 46.4801 38.6802H45.3281Z" fill="#9D7247"/>
<path d="M68.5109 31.3202C65.8015 31.3202 63.7429 30.5522 62.3349 29.0162C60.9269 27.4588 60.2229 25.2935 60.2229 22.5202C60.2229 19.5122 60.9162 17.2508 62.3029 15.7362C63.6895 14.2002 65.6415 13.4322 68.1589 13.4322C70.4842 13.4322 72.3082 14.0828 73.6309 15.3842C74.9749 16.6855 75.6469 18.6055 75.6469 21.1442V22.7762H65.1509C65.2149 24.9095 65.6095 26.4668 66.3349 27.4482C67.0815 28.4295 68.1162 28.9202 69.4389 28.9202C70.5482 28.9202 71.4869 28.6748 72.2549 28.1842C73.0229 27.6722 73.5882 27.0535 73.9509 26.3282C74.5269 26.6482 74.8149 27.1708 74.8149 27.8962C74.8149 28.8135 74.3029 29.6135 73.2789 30.2962C72.2549 30.9788 70.6655 31.3202 68.5109 31.3202ZM70.7509 20.7282C70.7509 19.0855 70.5589 17.8055 70.1749 16.8882C69.7909 15.9708 69.1402 15.5122 68.2229 15.5122C67.3269 15.5122 66.6122 15.9602 66.0789 16.8562C65.5455 17.7308 65.2575 19.0215 65.2149 20.7282H70.7509Z" fill="#9D7247"/>
<path d="M79.2721 17.2402C79.0375 16.5575 78.7495 16.1095 78.4081 15.8962C78.0881 15.6615 77.6188 15.5442 77.0001 15.5442H76.9041V13.8482H86.2801V15.5442H85.8641C85.2241 15.5442 84.7441 15.6402 84.4241 15.8322C84.1041 16.0028 83.9441 16.3548 83.9441 16.8882C83.9441 17.0588 83.9655 17.2722 84.0081 17.5282C84.0721 17.7842 84.1361 18.0295 84.2001 18.2642L85.3841 22.4242C85.5975 23.1922 85.7895 23.9815 85.9601 24.7922C86.1308 25.6028 86.2588 26.2748 86.3441 26.8082H86.4401C86.5468 26.2748 86.6748 25.7308 86.8241 25.1762C86.9735 24.6002 87.1868 23.9175 87.4641 23.1282L90.7281 14.0082H92.8081L95.9441 23.4482C96.2001 24.2162 96.3815 24.8668 96.4881 25.4002C96.6161 25.9335 96.7121 26.4028 96.7761 26.8082H96.8721C96.9788 26.2748 97.0855 25.7735 97.1921 25.3042C97.3201 24.8135 97.5015 24.1735 97.7361 23.3842L99.1441 18.7122C99.2295 18.4348 99.2935 18.1468 99.3361 17.8482C99.4001 17.5282 99.4321 17.2828 99.4321 17.1122C99.4321 16.0668 98.7281 15.5442 97.3201 15.5442H97.0961V13.8482H104.424V15.5442H104.008C103.389 15.5442 102.92 15.7042 102.6 16.0242C102.28 16.3228 101.949 16.9948 101.608 18.0402L97.4801 31.0002H94.0241L90.5361 20.3762L86.8561 31.0002H83.3681L79.2721 17.2402Z" fill="#9D7247"/>
<path d="M114.198 31.3202C111.489 31.3202 109.43 30.5522 108.022 29.0162C106.614 27.4588 105.91 25.2935 105.91 22.5202C105.91 19.5122 106.604 17.2508 107.99 15.7362C109.377 14.2002 111.329 13.4322 113.846 13.4322C116.172 13.4322 117.996 14.0828 119.318 15.3842C120.662 16.6855 121.334 18.6055 121.334 21.1442V22.7762H110.838C110.902 24.9095 111.297 26.4668 112.022 27.4482C112.769 28.4295 113.804 28.9202 115.126 28.9202C116.236 28.9202 117.174 28.6748 117.942 28.1842C118.71 27.6722 119.276 27.0535 119.638 26.3282C120.214 26.6482 120.502 27.1708 120.502 27.8962C120.502 28.8135 119.99 29.6135 118.966 30.2962C117.942 30.9788 116.353 31.3202 114.198 31.3202ZM116.438 20.7282C116.438 19.0855 116.246 17.8055 115.862 16.8882C115.478 15.9708 114.828 15.5122 113.91 15.5122C113.014 15.5122 112.3 15.9602 111.766 16.8562C111.233 17.7308 110.945 19.0215 110.902 20.7282H116.438Z" fill="#9D7247"/>
<path d="M123.328 31.0002V29.3042H123.424C124.149 29.3042 124.736 29.1762 125.184 28.9202C125.653 28.6428 125.888 28.0028 125.888 27.0002V17.7202C125.888 16.7815 125.674 16.1842 125.248 15.9282C124.842 15.6722 124.288 15.5442 123.584 15.5442H123.488V13.8482H129.952L130.592 16.3442H130.752C131.178 15.3842 131.712 14.6695 132.352 14.2002C132.992 13.7095 133.962 13.4642 135.264 13.4642C137.717 13.4642 138.944 14.3282 138.944 16.0562C138.944 17.0375 138.581 17.8055 137.856 18.3602C137.152 18.8935 136.16 19.1602 134.88 19.1602C134.88 18.2855 134.773 17.6242 134.56 17.1762C134.346 16.7282 133.93 16.5042 133.312 16.5042C132.757 16.5042 132.309 16.6962 131.968 17.0802C131.626 17.4642 131.37 17.9442 131.2 18.5202C131.029 19.0748 130.912 19.6402 130.848 20.2162C130.784 20.7922 130.752 21.2615 130.752 21.6242V27.1602C130.752 28.0988 130.965 28.6962 131.392 28.9522C131.818 29.1868 132.352 29.3042 132.992 29.3042H134.016V31.0002H123.328Z" fill="#9D7247"/>
<path d="M139.982 31.0002V29.3042H140.366C140.686 29.3042 141.016 29.2615 141.358 29.1762C141.72 29.0695 142.019 28.8668 142.254 28.5682C142.51 28.2695 142.638 27.8215 142.638 27.2242V10.3282C142.638 9.75218 142.51 9.32551 142.254 9.04818C141.998 8.77084 141.688 8.58951 141.326 8.50418C140.984 8.41884 140.664 8.37618 140.366 8.37618H139.982V6.68018H147.502V27.2242C147.502 27.8215 147.619 28.2695 147.854 28.5682C148.11 28.8668 148.419 29.0695 148.782 29.1762C149.144 29.2615 149.475 29.3042 149.774 29.3042H150.158V31.0002H139.982Z" fill="#9D7247"/>
<path d="M151.552 36.8242C153.045 36.8242 154.24 36.5895 155.136 36.1202C156.053 35.6508 156.778 34.9895 157.312 34.1362C157.845 33.2828 158.282 32.2908 158.624 31.1602L152.864 17.0802C152.629 16.5255 152.341 16.1735 152 16.0242C151.658 15.8535 151.264 15.7575 150.816 15.7362H150.688V13.8482H159.808V15.5442H159.712C159.114 15.5442 158.645 15.6295 158.304 15.8002C157.962 15.9708 157.792 16.2802 157.792 16.7282C157.792 16.8988 157.824 17.1122 157.888 17.3682C157.973 17.6028 158.048 17.8055 158.112 17.9762L160.32 23.8322C160.618 24.6428 160.832 25.3042 160.96 25.8162C161.088 26.3282 161.173 26.7975 161.216 27.2242C161.258 26.7762 161.365 26.2748 161.536 25.7202C161.728 25.1655 161.856 24.8135 161.92 24.6642L164.032 18.3922C164.117 18.1788 164.192 17.9122 164.256 17.5922C164.32 17.2722 164.352 17.0162 164.352 16.8242C164.352 16.3548 164.16 16.0348 163.776 15.8642C163.392 15.6722 162.848 15.5655 162.144 15.5442H162.016V13.8482H169.216V15.5442H169.088C168.49 15.5655 168.01 15.7468 167.648 16.0882C167.306 16.4082 166.976 17.0055 166.656 17.8802L161.824 31.0002C161.269 32.5575 160.736 33.8268 160.224 34.8082C159.733 35.8108 159.157 36.5895 158.496 37.1442C157.834 37.7202 156.992 38.1148 155.968 38.3282C154.965 38.5628 153.674 38.6802 152.096 38.6802H151.552V36.8242Z" fill="#9D7247"/>
<path d="M171.048 31.2562C170.323 31.2562 169.704 31.0748 169.192 30.7122C168.68 30.3282 168.424 29.6562 168.424 28.6962C168.424 27.7148 168.68 27.0428 169.192 26.6802C169.704 26.3175 170.323 26.1362 171.048 26.1362C171.752 26.1362 172.36 26.3175 172.872 26.6802C173.405 27.0428 173.672 27.7148 173.672 28.6962C173.672 29.6562 173.405 30.3282 172.872 30.7122C172.36 31.0748 171.752 31.2562 171.048 31.2562Z" fill="#9D7247"/>
</svg>
