<svg width="24" height="24" viewBox="0 0 24 24" fill="none" xmlns="http://www.w3.org/2000/svg">
<path d="M21.2727 14.4545V16.0909H19.6364V14.4545H21.2727ZM19.0909 9H17.4545V8.45455C17.4545 7.58656 17.7993 6.75413 18.4131 6.14038C19.0269 5.52662 19.8593 5.18182 20.7273 5.18182C21.5953 5.18182 22.4277 5.52662 23.0414 6.14038C23.6552 6.75413 24 7.58656 24 8.45455C24 9.51273 23.4545 10.5055 22.5927 11.0836L22.2655 11.2909C21.6436 11.7273 21.2727 12.3927 21.2727 13.1455V13.3636H19.6364V13.1455C19.6364 11.8473 20.2909 10.6364 21.3709 9.92727L21.6873 9.72C22.1127 9.43636 22.3636 8.96727 22.3636 8.45455C22.3636 8.02056 22.1912 7.60434 21.8844 7.29746C21.5775 6.99058 21.1613 6.81818 20.7273 6.81818C20.2933 6.81818 19.8771 6.99058 19.5702 7.29746C19.2633 7.60434 19.0909 8.02056 19.0909 8.45455V9ZM8.72727 12.8182C11.64 12.8182 17.4545 14.28 17.4545 17.1818V20.4545H0V17.1818C0 14.28 5.81455 12.8182 8.72727 12.8182ZM8.72727 3C9.88458 3 10.9945 3.45974 11.8128 4.27808C12.6312 5.09642 13.0909 6.20633 13.0909 7.36364C13.0909 8.52095 12.6312 9.63085 11.8128 10.4492C10.9945 11.2675 9.88458 11.7273 8.72727 11.7273C7.56996 11.7273 6.46006 11.2675 5.64172 10.4492C4.82338 9.63085 4.36364 8.52095 4.36364 7.36364C4.36364 6.20633 4.82338 5.09642 5.64172 4.27808C6.46006 3.45974 7.56996 3 8.72727 3ZM8.72727 14.8909C5.48727 14.8909 2.07273 16.4836 2.07273 17.1818V18.3818H15.3818V17.1818C15.3818 16.4836 11.9673 14.8909 8.72727 14.8909ZM8.72727 5.07273C8.11969 5.07273 7.53698 5.31409 7.10736 5.74372C6.67773 6.17335 6.43636 6.75605 6.43636 7.36364C6.43636 7.97122 6.67773 8.55393 7.10736 8.98355C7.53698 9.41318 8.11969 9.65455 8.72727 9.65455C9.33486 9.65455 9.91756 9.41318 10.3472 8.98355C10.7768 8.55393 11.0182 7.97122 11.0182 7.36364C11.0182 6.75605 10.7768 6.17335 10.3472 5.74372C9.91756 5.31409 9.33486 5.07273 8.72727 5.07273Z" fill="#898989"/>
</svg>
